<svg width="80" height="80" viewBox="0 0 80 80" fill="none" xmlns="http://www.w3.org/2000/svg">
<g filter="url(#filter0_dd_148_1663)">
<circle cx="40" cy="39" r="20" fill="#DC3030"/>
</g>
<path d="M40.2898 43.2727V42.5057C40.2898 41.8902 40.4223 41.322 40.6875 40.8011C40.9574 40.2803 41.348 39.8613 41.8594 39.544C42.3707 39.2268 42.9934 39.0682 43.7273 39.0682C44.4801 39.0682 45.1122 39.2244 45.6236 39.5369C46.1397 39.8494 46.5303 40.2661 46.7955 40.7869C47.0606 41.3078 47.1932 41.8807 47.1932 42.5057V43.2727C47.1932 43.8883 47.0582 44.4564 46.7884 44.9773C46.5232 45.4981 46.1326 45.9171 45.6165 46.2344C45.1004 46.5516 44.4706 46.7102 43.7273 46.7102C42.9839 46.7102 42.3565 46.5516 41.8452 46.2344C41.3338 45.9171 40.9455 45.4981 40.6804 44.9773C40.42 44.4564 40.2898 43.8883 40.2898 43.2727ZM42.7614 42.5057V43.2727C42.7614 43.5426 42.8277 43.8101 42.9602 44.0753C43.0975 44.3357 43.3532 44.4659 43.7273 44.4659C44.1203 44.4659 44.3783 44.3381 44.5014 44.0824C44.6293 43.8267 44.6932 43.5568 44.6932 43.2727V42.5057C44.6932 42.2216 44.634 41.947 44.5156 41.6818C44.3973 41.4167 44.1345 41.2841 43.7273 41.2841C43.3532 41.2841 43.0975 41.4167 42.9602 41.6818C42.8277 41.947 42.7614 42.2216 42.7614 42.5057ZM32.6761 34.9489V34.1818C32.6761 33.5568 32.8111 32.9839 33.081 32.4631C33.3556 31.9422 33.7486 31.5256 34.2599 31.2131C34.7713 30.9006 35.3892 30.7443 36.1136 30.7443C36.8665 30.7443 37.4986 30.9006 38.0099 31.2131C38.526 31.5256 38.9167 31.9422 39.1818 32.4631C39.447 32.9839 39.5795 33.5568 39.5795 34.1818V34.9489C39.5795 35.5739 39.4446 36.1444 39.1747 36.6605C38.9096 37.1766 38.5189 37.5885 38.0028 37.8963C37.4867 38.2041 36.857 38.358 36.1136 38.358C35.3703 38.358 34.7429 38.2017 34.2315 37.8892C33.7202 37.5767 33.3319 37.1624 33.0668 36.6463C32.8063 36.1302 32.6761 35.5644 32.6761 34.9489ZM35.1761 34.1818V34.9489C35.1761 35.233 35.2424 35.5028 35.375 35.7585C35.5076 36.0142 35.7538 36.142 36.1136 36.142C36.5066 36.142 36.7647 36.0142 36.8878 35.7585C37.0156 35.5028 37.0795 35.233 37.0795 34.9489V34.1818C37.0795 33.8977 37.0204 33.6231 36.902 33.358C36.7836 33.0928 36.5208 32.9602 36.1136 32.9602C35.7396 32.9602 35.4886 33.0975 35.3608 33.3722C35.2377 33.642 35.1761 33.9119 35.1761 34.1818ZM33.8835 46L43.8835 31.4545H45.9006L35.9006 46H33.8835Z" fill="white"/>
<defs>
<filter id="filter0_dd_148_1663" x="0" y="0" width="80" height="80" filterUnits="userSpaceOnUse" color-interpolation-filters="sRGB">
<feFlood flood-opacity="0" result="BackgroundImageFix"/>
<feColorMatrix in="SourceAlpha" type="matrix" values="0 0 0 0 0 0 0 0 0 0 0 0 0 0 0 0 0 0 127 0" result="hardAlpha"/>
<feOffset dy="4"/>
<feGaussianBlur stdDeviation="3"/>
<feComposite in2="hardAlpha" operator="out"/>
<feColorMatrix type="matrix" values="0 0 0 0 0 0 0 0 0 0 0 0 0 0 0 0 0 0 0.05 0"/>
<feBlend mode="normal" in2="BackgroundImageFix" result="effect1_dropShadow_148_1663"/>
<feColorMatrix in="SourceAlpha" type="matrix" values="0 0 0 0 0 0 0 0 0 0 0 0 0 0 0 0 0 0 127 0" result="hardAlpha"/>
<feOffset dy="1"/>
<feGaussianBlur stdDeviation="10"/>
<feComposite in2="hardAlpha" operator="out"/>
<feColorMatrix type="matrix" values="0 0 0 0 0 0 0 0 0 0 0 0 0 0 0 0 0 0 0.05 0"/>
<feBlend mode="normal" in2="effect1_dropShadow_148_1663" result="effect2_dropShadow_148_1663"/>
<feBlend mode="normal" in="SourceGraphic" in2="effect2_dropShadow_148_1663" result="shape"/>
</filter>
</defs>
</svg>
